<svg width="60" height="60" viewBox="0 0 60 60" fill="none" xmlns="http://www.w3.org/2000/svg">
<circle cx="30" cy="30" r="30" fill="#E9E9FF"/>
<path d="M27 38H24C23.7348 38 23.4804 37.9234 23.2929 37.787C23.1054 37.6506 23 37.4656 23 37.2727V22.7273C23 22.5344 23.1054 22.3494 23.2929 22.213C23.4804 22.0766 23.7348 22 24 22H27C27.2652 22 27.5196 22.0766 27.7071 22.213C27.8946 22.3494 28 22.5344 28 22.7273V37.2727C28 37.4656 27.8946 37.6506 27.7071 37.787C27.5196 37.9234 27.2652 38 27 38Z" fill="#BDBDBD"/>
<path d="M36 38H33C32.7348 38 32.4804 37.9234 32.2929 37.787C32.1054 37.6506 32 37.4656 32 37.2727V22.7273C32 22.5344 32.1054 22.3494 32.2929 22.213C32.4804 22.0766 32.7348 22 33 22H36C36.2652 22 36.5196 22.0766 36.7071 22.213C36.8946 22.3494 37 22.5344 37 22.7273V37.2727C37 37.4656 36.8946 37.6506 36.7071 37.787C36.5196 37.9234 36.2652 38 36 38Z" fill="#BDBDBD"/>
</svg>
